<svg xmlns="http://www.w3.org/2000/svg" viewBox="0 0 1239.77 179.26"><defs><style>.cls-1{font-size:91px;font-family:ComicSansMS-Bold, Comic Sans MS;font-weight:700;}.cls-1,.cls-27{fill:#e63030;}.cls-2{letter-spacing:-0.04em;}.cls-12,.cls-28,.cls-3{fill:#0c69ab;}.cls-13,.cls-3,.cls-5{font-size:89px;}.cls-3{letter-spacing:-0.2em;}.cls-19,.cls-23,.cls-4{fill:#8ab93a;}.cls-16,.cls-4{font-size:83px;}.cls-4{letter-spacing:-0.1em;}.cls-13,.cls-25,.cls-5{fill:#f8cf0c;}.cls-5{letter-spacing:-0.12em;}.cls-17,.cls-24,.cls-6{fill:#08a2db;}.cls-6{font-size:87px;letter-spacing:-0.06em;}.cls-16,.cls-7{fill:#ef9530;}.cls-17,.cls-22,.cls-7,.cls-8{font-size:85px;}.cls-7{letter-spacing:-0.04em;}.cls-11,.cls-18,.cls-8{fill:#84387b;}.cls-8{letter-spacing:-0.06em;}.cls-20,.cls-9{fill:#f7c312;}.cls-9{font-size:84px;letter-spacing:-0.12em;}.cls-10,.cls-15{fill:#079b48;}.cls-10{font-size:98px;letter-spacing:-0.14em;}.cls-11{font-size:100px;letter-spacing:-0.14em;}.cls-12{font-size:93px;letter-spacing:-0.14em;}.cls-13{letter-spacing:-0.14em;}.cls-14{font-size:80px;letter-spacing:-0.02em;}.cls-15,.cls-20{font-size:78px;}.cls-15{letter-spacing:-0.08em;}.cls-16{letter-spacing:-0.06em;}.cls-17{letter-spacing:-0.12em;}.cls-18{font-size:81px;letter-spacing:-0.06em;}.cls-19,.cls-21{font-size:76px;letter-spacing:-0.06em;}.cls-20{letter-spacing:-0.06em;}.cls-21{fill:#e73231;}.cls-22{fill:#116aad;}.cls-26{fill:none;stroke:#e63030;stroke-linecap:round;stroke-linejoin:round;stroke-width:4px;}</style></defs><g id="Layer_2" data-name="Layer 2"><g id="Layer_1-2" data-name="Layer 1"><text class="cls-1" transform="translate(108.24 87.94)"><tspan class="cls-2">И</tspan><tspan class="cls-3" x="64.21" y="15.6">Г</tspan><tspan class="cls-4" x="95.43" y="31.66">Р</tspan><tspan class="cls-5" x="131.34" y="11.14">А</tspan><tspan class="cls-6" x="185.76" y="28.74">Л</tspan><tspan class="cls-7" x="244.81" y="4.44">Н</tspan><tspan class="cls-8" x="306.7" y="26.73">И</tspan><tspan class="cls-9" x="365.14" y="37.66">Ц</tspan><tspan class="cls-10" x="420.03" y="26.29">А</tspan><tspan class="cls-11" x="477.99" y="17.03">-</tspan><tspan class="cls-12" x="525.03" y="17.03">З</tspan><tspan class="cls-13" x="567.91" y="32.58">А</tspan><tspan class="cls-14" x="620.54" y="9.03">Н</tspan><tspan class="cls-15" x="680.39" y="13.55">И</tspan><tspan class="cls-16" x="732.46" y="32.58">М</tspan><tspan class="cls-17" x="800.75" y="13.03">А</tspan><tspan class="cls-18" x="852.73" y="34.58">Л</tspan><tspan class="cls-19" x="907.71" y="9.03">Н</tspan><tspan class="cls-20" x="961.52" y="32.58">И</tspan><tspan class="cls-21" x="1015.15" y="17.55">Ц</tspan><tspan class="cls-22" x="1069.37" y="2">А</tspan></text><path class="cls-23" d="M92,54a646.42,646.42,0,0,1,19,81c-24.49-8.72-50.16-17.12-77-25q-16.18-4.75-32-9A348.3,348.3,0,0,0,4,60c-.12-12.25-.88-23.63-2-34q9.84-1.11,20-2c20.48-1.79,40.17-2.73,59-3Q86.73,36.72,92,54Zm5,65A508.45,508.45,0,0,0,84,64c-3.45-11.68-7.17-22.69-11-33-8.92.08-18.26.39-28,1-11.24.7-21.92,1.74-32,3q.71,8.68,1,18a360.49,360.49,0,0,1-1,40q9.41,2.36,19,5C55,104.32,76.67,111.42,97,119Z"/><path class="cls-24" d="M84,64a508.45,508.45,0,0,1,13,55c-20.33-7.54-42-14.64-65-21q-9.6-2.65-19-5L73,31C76.83,41.27,80.55,52.28,84,64Z"/><path class="cls-25" d="M73,31,13,93a360.49,360.49,0,0,0,1-40q-.29-9.32-1-18c10.08-1.26,20.76-2.3,32-3C54.74,31.35,64.08,31,73,31Z"/><path class="cls-26" d="M2,26q9.84-1.11,20-2c20.48-1.79,40.17-2.73,59-3q5.73,15.76,11,33a646.42,646.42,0,0,1,19,81c-24.49-8.72-50.16-17.12-77-25q-16.18-4.75-32-9A348.3,348.3,0,0,0,4,60C3.88,47.71,3.12,36.33,2,26Z"/><path class="cls-27" d="M342.08,146.15c-31.65,15.14-76.66,34.44-111.92,33-4.9-.35-10.12-1.28-14.15-4.35-2.74-2-4.27-5.15-5.93-8-5.43-9.89-14.27-17.38-25.24-20.24a43.77,43.77,0,0,0-27.64.87c-6.22,2.18-12,5.58-18.72,6.68-10.71,1.86-21.18-5-26.45-14a16.46,16.46,0,0,1-2-5c-1.18-4.8-2.06-9.62-2.91-14.46-1.73-9.62-3.08-19.26-5.39-28.74-.75-3.16-1.59-6.3-2.45-9.45a.2.2,0,0,1,.38-.12c1.2,3,2.3,6.11,3.31,9.21s2,6.24,2.79,9.41c2.74,10.76,5,22.49,7.87,33.18,1.91,6.84,9,13,15.5,15.07,5.93,2.06,11.81.29,17.53-2,6.07-2.45,12.41-5.07,19.07-5.85,13.44-1.4,27.56,2.85,37.06,12.55,4.76,4.64,7.73,10.76,10.92,16.39,2.8,4.92,8.74,6.83,14.1,7.35,13.73,1.14,27.28-2.92,40.38-6.63,12.41-3.68,24.73-7.74,37-12.06s24.44-8.86,36.72-13.24a.2.2,0,0,1,.26.12.21.21,0,0,1-.1.25Z"/><circle class="cls-28" cx="45" cy="48.96" r="5"/><circle class="cls-28" cx="29" cy="64.96" r="5"/><path class="cls-27" d="M51.54,88.37c9.88,1.31,18.67-6,17.86-16.14a20.13,20.13,0,0,0-.59-4c4.91,11.65-5,23.29-17.27,20.13Z"/></g></g></svg>